<svg width="128" height="128" viewBox="0 0 128 128" fill="none" xmlns="http://www.w3.org/2000/svg">
<g clip-path="url(#clip0)">
<ellipse cx="63.5786" cy="64.0615" rx="62.6126" ry="61.0615" fill="black"/>
<ellipse cx="63.2604" cy="77.25" rx="50.2604" ry="48.25" fill="white"/>
<path d="M102.326 64.1021C102.014 69.2667 93.4849 92.0968 85.073 99.3869C76.6611 106.677 64.6703 103.312 59.1076 121.202C57.9427 96.5179 57.8548 83.6252 66.3815 75.0046C74.9082 66.384 95.9281 63.7343 102.326 64.1021Z" fill="url(#paint0_radial)"/>
<path d="M38.1124 87.9675C38.6479 90.3162 39.6205 99.1113 44.7064 101.549C49.7924 103.986 56.048 105.864 59.9604 113.676C58.6209 102.259 58.0479 95.5165 53.4784 92.1741C48.9088 88.8318 41.0221 87.3365 38.1124 87.9675Z" fill="url(#paint1_radial)"/>
<path d="M69.0474 98.2808C60.5634 110.432 61.5 120 58 122.5C57.2474 118.87 57.8034 109.671 66.3088 96.8411C76.4431 81.5544 86.677 75.2152 90.5524 73.0376C84.9552 78.3301 79.2236 83.7055 69.0474 98.2808Z" fill="white"/>
<path d="M54.004 102.937C57.7591 107.902 58.4914 113.836 59.5768 115.634C59.8336 114.1 58.9043 107.541 55.1292 102.291C50.6311 96.036 46.2363 93.5352 44.5757 92.6816C47.0089 94.815 49.4999 96.9811 54.004 102.937Z" fill="white"/>
<path d="M5.43837 62.7047L6.61459 59.137L7.53924 59.4362L6.78766 61.7159L9.86982 62.7132L10.4523 60.9465L11.3655 61.242L10.783 63.0088L15.1095 64.4087L14.6848 65.6967L5.43837 62.7047Z" fill="url(#paint2_linear)"/>
<path d="M19.6271 54.4847C19.249 55.1164 18.7938 55.4566 18.2614 55.5053C17.7262 55.543 17.1002 55.3509 16.3834 54.9289L14.6466 53.9062C13.9298 53.4842 13.4634 53.0332 13.2474 52.5531C13.0286 52.0621 13.1082 51.5008 13.4862 50.869C13.8601 50.2442 14.3146 49.9129 14.8498 49.8752C15.3823 49.8265 16.0069 50.0132 16.7236 50.4352L18.4605 51.4578C19.1772 51.8799 19.645 52.3364 19.8639 52.8274C20.0799 53.3074 20.001 53.8599 19.6271 54.4847ZM18.8103 54.0039C18.9295 53.8047 18.9572 53.626 18.8934 53.4678C18.8297 53.3095 18.7178 53.1694 18.5579 53.0473C18.3979 52.9253 18.1697 52.777 17.8734 52.6025L16.0021 51.5008C15.7058 51.3263 15.4653 51.1986 15.2807 51.1177C15.0891 51.0328 14.9081 51.0005 14.7375 51.0208C14.5669 51.0411 14.4221 51.1508 14.3029 51.3499C14.1837 51.549 14.154 51.7312 14.2136 51.8963C14.2774 52.0545 14.3927 52.1967 14.5596 52.3228C14.7195 52.4449 14.9477 52.5931 15.2441 52.7676L17.1153 53.8694C17.4116 54.0439 17.6521 54.1716 17.8368 54.2524C18.0214 54.3333 18.199 54.3635 18.3696 54.3433C18.5443 54.3161 18.6912 54.203 18.8103 54.0039Z" fill="url(#paint3_linear)"/>
<path d="M20.0929 41.8899L20.9676 40.9494L21.6933 41.6136C21.5677 41.1732 21.5304 40.8082 21.5813 40.5186C21.6377 40.2231 21.7613 39.9728 21.952 39.7677C22.0011 39.715 22.0504 39.6678 22.0999 39.6264L23.1441 40.5821C22.8989 40.7048 22.7028 40.8453 22.5556 41.0035C22.4139 41.1558 22.3242 41.3286 22.2864 41.5219C22.2482 41.7039 22.2688 41.9342 22.3481 42.2129L26.0827 45.6309L25.2079 46.5714L20.0929 41.8899Z" fill="url(#paint4_linear)"/>
<path d="M33.6715 39.0651C33.2328 39.3732 32.8342 39.531 32.4757 39.5385C32.1126 39.5394 31.7658 39.4116 31.4353 39.1551C31.1047 38.8986 30.7536 38.51 30.3819 37.9892L29.4619 36.7003C28.9044 35.9191 28.619 35.2645 28.6057 34.7362C28.5944 34.1969 28.903 33.7065 29.5317 33.265C29.99 32.943 30.4012 32.7959 30.7651 32.8237C31.1356 32.8469 31.48 33.0057 31.7983 33.3002C32.1185 33.5835 32.4854 34.0148 32.8989 34.5942L33.2264 35.0531L30.9869 36.6261L31.7953 37.7588C32.0416 38.1038 32.2696 38.3199 32.4793 38.4071C32.691 38.4833 32.9081 38.4432 33.1308 38.2868C33.3534 38.1304 33.4506 37.9497 33.4223 37.7448C33.3894 37.5334 33.2614 37.2715 33.0384 36.959L32.7944 36.6172L33.816 35.8997L33.9693 36.1146C34.3921 36.7069 34.5874 37.249 34.555 37.7409C34.5226 38.2327 34.2281 38.6741 33.6715 39.0651ZM31.7908 35.2112L31.4284 34.7034C31.1543 34.3193 30.9199 34.0735 30.7251 33.966C30.5323 33.8473 30.3147 33.8731 30.0724 34.0433C29.9022 34.1628 29.7991 34.2939 29.7632 34.4364C29.7338 34.5743 29.7678 34.7459 29.8651 34.9512C29.9578 35.1499 30.125 35.4185 30.3666 35.757L30.5827 36.0597L31.7908 35.2112Z" fill="url(#paint5_linear)"/>
<path d="M38.8291 27.8853L40.0264 27.3885L42.9808 32.2026L41.6118 26.7308L42.7648 26.2524L44.2391 33.1482L42.7868 33.7507L38.8291 27.8853Z" fill="url(#paint6_linear)"/>
<path d="M53.8294 30.4427C53.3015 30.5359 52.8741 30.5099 52.5473 30.3645C52.219 30.2113 51.9605 29.9482 51.7717 29.5754C51.5829 29.2026 51.432 28.7013 51.319 28.0714L51.0393 26.5125C50.8698 25.5677 50.892 24.8531 51.1058 24.3686C51.3261 23.8748 51.8145 23.5611 52.5709 23.4276C53.1224 23.3302 53.5565 23.3713 53.8733 23.5509C54.1979 23.7292 54.4409 24.0193 54.6025 24.4213C54.7705 24.814 54.9173 25.3607 55.043 26.0615L55.1426 26.6165L52.448 27.0923L52.6937 28.4623C52.7686 28.8796 52.8821 29.1723 53.0341 29.3403C53.1927 29.4992 53.4059 29.5549 53.6738 29.5076C53.9417 29.4603 54.1067 29.3378 54.1687 29.14C54.2294 28.9344 54.2258 28.6426 54.158 28.2647L54.0838 27.8513L55.313 27.6343L55.3596 27.8941C55.4881 28.6106 55.4326 29.1849 55.1932 29.6171C54.9537 30.0493 54.4991 30.3245 53.8294 30.4427ZM53.7788 26.1507L53.6686 25.5365C53.5853 25.072 53.4787 24.7497 53.3488 24.5695C53.2254 24.3801 53.0179 24.3112 52.7264 24.3626C52.5216 24.3988 52.3725 24.4739 52.2791 24.5878C52.1936 24.7004 52.151 24.8704 52.1511 25.0978C52.1499 25.3173 52.1859 25.6318 52.2594 26.0412L52.3251 26.4073L53.7788 26.1507Z" fill="url(#paint7_linear)"/>
<path d="M63.7316 22.5164L65.0149 22.5588L64.9818 23.5423C65.2349 23.1584 65.488 22.8907 65.7413 22.739C66.0025 22.5875 66.2731 22.5164 66.5529 22.5257C66.6249 22.5281 66.6927 22.5343 66.7564 22.5444L66.7087 23.9596C66.4561 23.8552 66.2219 23.7994 66.006 23.7923C65.7981 23.7854 65.6084 23.8312 65.437 23.9296C65.2739 24.0202 65.1122 24.1869 64.9519 24.4298L64.7815 29.4909L63.4982 29.4484L63.7316 22.5164Z" fill="url(#paint8_linear)"/>
<path d="M83.2081 33.6563C82.404 33.2991 81.9365 32.7894 81.8054 32.1271C81.6777 31.4575 81.8393 30.6232 82.2903 29.624L83.6285 26.6594C83.9379 25.9738 84.2608 25.4431 84.5972 25.0672C84.9442 24.6872 85.3422 24.4568 85.7911 24.376C86.2506 24.2912 86.7837 24.3835 87.3904 24.653C88.2091 25.0166 88.7038 25.4858 88.8743 26.0605C89.0522 26.6386 88.9403 27.3725 88.5387 28.2622L88.3905 28.5904L87.2283 28.0742L87.3517 27.8007C87.5426 27.3777 87.6635 27.0418 87.7144 26.793C87.7686 26.5369 87.738 26.3132 87.6225 26.1218C87.5143 25.9337 87.2995 25.7682 86.9778 25.6254C86.6343 25.4728 86.3422 25.4394 86.1017 25.5252C85.8644 25.6037 85.6609 25.7628 85.4912 26.0027C85.3289 26.2457 85.1489 26.5861 84.9514 27.0237L83.4701 30.3056C83.1639 30.9838 83.0238 31.5082 83.0496 31.8786C83.0861 32.245 83.3382 32.5321 83.806 32.7399C84.2666 32.9444 84.6533 32.9235 84.9663 32.6773C85.2866 32.4343 85.6064 31.9591 85.9257 31.2517L86.2022 30.6391L85.0728 30.1375L85.4679 29.2623L87.7156 30.2606L85.7356 34.6474L84.9571 34.3017L85.2957 33.2307C84.6788 33.8585 83.983 34.0004 83.2081 33.6563Z" fill="url(#paint9_linear)"/>
<path d="M96.4253 32.9517L97.4571 33.7153L96.8655 34.5019C97.2941 34.3313 97.6561 34.2557 97.9516 34.2753C98.2535 34.2996 98.517 34.3951 98.742 34.5616C98.7998 34.6044 98.8521 34.648 98.8987 34.6925L98.0474 35.8245C97.8994 35.5955 97.7386 35.4168 97.565 35.2883C97.3978 35.1646 97.2155 35.0944 97.0179 35.0776C96.8317 35.0592 96.6029 35.1039 96.3316 35.2118L93.287 39.2601L92.2552 38.4965L96.4253 32.9517Z" fill="url(#paint10_linear)"/>
<path d="M100.696 46.0339C100.341 45.6326 100.141 45.2554 100.095 44.9025C100.056 44.5442 100.148 44.1888 100.37 43.8362C100.592 43.4836 100.945 43.0972 101.428 42.6768L102.623 41.6364C103.347 41.0058 103.973 40.6569 104.501 40.5895C105.04 40.5228 105.565 40.777 106.073 41.3521C106.444 41.7713 106.635 42.162 106.645 42.524C106.661 42.892 106.538 43.2482 106.277 43.5926C106.026 43.9377 105.633 44.3441 105.096 44.8118L104.67 45.1822L102.858 43.1337L101.807 44.048C101.488 44.3265 101.295 44.5737 101.23 44.7897C101.176 45.0064 101.239 45.2166 101.419 45.4202C101.599 45.6239 101.79 45.7012 101.993 45.6522C102.201 45.598 102.45 45.4448 102.74 45.1925L103.057 44.9167L103.884 45.8511L103.684 46.0245C103.135 46.5027 102.612 46.7511 102.116 46.7697C101.62 46.7883 101.146 46.543 100.696 46.0339ZM104.361 43.7817L104.831 43.3718C105.187 43.0618 105.409 42.8052 105.496 42.6019C105.595 42.3994 105.546 42.1874 105.35 41.9657C105.212 41.81 105.07 41.7217 104.924 41.7009C104.782 41.6861 104.614 41.7373 104.418 41.8545C104.229 41.9664 103.977 42.159 103.663 42.4322L103.383 42.6766L104.361 43.7817Z" fill="url(#paint11_linear)"/>
<path d="M107.424 55.39C107.17 54.918 107.062 54.5049 107.099 54.1507C107.142 53.7928 107.313 53.4674 107.61 53.1747C107.907 52.8819 108.338 52.5859 108.904 52.2866L110.304 51.5457C111.153 51.0967 111.842 50.8997 112.371 50.9545C112.911 51.0127 113.363 51.3799 113.727 52.0562C113.992 52.5494 114.088 52.9735 114.015 53.3285C113.946 53.6907 113.745 54.0096 113.412 54.2854C113.09 54.5645 112.614 54.8706 111.984 55.2036L111.486 55.4673L110.191 53.0581L108.96 53.7091C108.585 53.9074 108.341 54.1043 108.228 54.2997C108.126 54.4985 108.139 54.7177 108.268 54.9572C108.397 55.1967 108.565 55.3157 108.773 55.3142C108.989 55.3089 109.266 55.2165 109.605 55.0369L109.977 54.8405L110.568 55.9394L110.334 56.0629C109.69 56.4034 109.125 56.5261 108.638 56.4309C108.151 56.3358 107.746 55.9888 107.424 55.39ZM111.505 54.0323L112.056 53.7404C112.474 53.5197 112.748 53.3203 112.879 53.1422C113.022 52.9674 113.023 52.7497 112.883 52.489C112.784 52.3059 112.666 52.1874 112.528 52.1337C112.394 52.087 112.218 52.0985 112.002 52.168C111.792 52.2338 111.503 52.364 111.135 52.5585L110.806 52.7325L111.505 54.0323Z" fill="url(#paint12_linear)"/>
<path d="M118.12 62.3843L118.452 63.6245L117.791 63.7987C118.436 64.1994 118.833 64.678 118.982 65.2343C119.079 65.5975 119.017 65.891 118.795 66.1148C118.574 66.3386 118.269 66.5014 117.883 66.6033L112.451 68.0334L112.119 66.7932L117.191 65.4578C117.446 65.3906 117.626 65.3021 117.729 65.1922C117.832 65.0823 117.856 64.9269 117.803 64.726C117.737 64.4788 117.52 64.2257 117.152 63.9668L111.744 65.3908L111.412 64.1506L118.12 62.3843Z" fill="url(#paint13_linear)"/>
</g>
<defs>
<radialGradient id="paint0_radial" cx="0" cy="0" r="1" gradientUnits="userSpaceOnUse" gradientTransform="translate(91.3787 78.8148) rotate(127.419) scale(51.0952 120.263)">
<stop offset="0.119792" stop-color="#27CB24"/>
<stop offset="0.453125" stop-color="#167514"/>
<stop offset="0.776042" stop-color="#000500"/>
</radialGradient>
<radialGradient id="paint1_radial" cx="0" cy="0" r="1" gradientUnits="userSpaceOnUse" gradientTransform="translate(44.8276 93.4328) rotate(54.2238) scale(24.9248 60.8569)">
<stop offset="0.119792" stop-color="#27CB24"/>
<stop offset="0.427083" stop-color="#136411"/>
<stop offset="0.692708" stop-color="#000500"/>
</radialGradient>
<linearGradient id="paint2_linear" x1="1.9609" y1="59.5855" x2="20.2216" y2="65.6058" gradientUnits="userSpaceOnUse">
<stop offset="0.375" stop-color="#F2AF02"/>
<stop offset="0.572917" stop-color="#F9D986"/>
<stop offset="0.703125" stop-color="white"/>
</linearGradient>
<linearGradient id="paint3_linear" x1="7.80746" y1="46.7926" x2="24.2847" y2="56.6524" gradientUnits="userSpaceOnUse">
<stop offset="0.375" stop-color="#F2AF02"/>
<stop offset="0.572917" stop-color="#F9D986"/>
<stop offset="0.703125" stop-color="white"/>
</linearGradient>
<linearGradient id="paint4_linear" x1="15.8673" y1="36.0641" x2="29.9049" y2="49.1207" gradientUnits="userSpaceOnUse">
<stop offset="0.375" stop-color="#F2AF02"/>
<stop offset="0.572917" stop-color="#F9D986"/>
<stop offset="0.703125" stop-color="white"/>
</linearGradient>
<linearGradient id="paint5_linear" x1="26.0002" y1="27.233" x2="37.0007" y2="42.895" gradientUnits="userSpaceOnUse">
<stop offset="0.375" stop-color="#F2AF02"/>
<stop offset="0.572917" stop-color="#F9D986"/>
<stop offset="0.703125" stop-color="white"/>
</linearGradient>
<linearGradient id="paint6_linear" x1="38.3849" y1="20.4236" x2="45.7084" y2="38.0755" gradientUnits="userSpaceOnUse">
<stop offset="0.375" stop-color="#F2AF02"/>
<stop offset="0.572917" stop-color="#F9D986"/>
<stop offset="0.703125" stop-color="white"/>
</linearGradient>
<linearGradient id="paint7_linear" x1="51.969" y1="16.4589" x2="55.2889" y2="35.2611" gradientUnits="userSpaceOnUse">
<stop offset="0.375" stop-color="#F2AF02"/>
<stop offset="0.572917" stop-color="#F9D986"/>
<stop offset="0.703125" stop-color="white"/>
</linearGradient>
<linearGradient id="paint8_linear" x1="65.4227" y1="15.5045" x2="64.7913" y2="34.5827" gradientUnits="userSpaceOnUse">
<stop offset="0.375" stop-color="#F2AF02"/>
<stop offset="0.572917" stop-color="#F9D986"/>
<stop offset="0.703125" stop-color="white"/>
</linearGradient>
<linearGradient id="paint9_linear" x1="89.6263" y1="21.0539" x2="81.868" y2="38.5229" gradientUnits="userSpaceOnUse">
<stop offset="0.375" stop-color="#F2AF02"/>
<stop offset="0.572917" stop-color="#F9D986"/>
<stop offset="0.703125" stop-color="white"/>
</linearGradient>
<linearGradient id="paint10_linear" x1="101.836" y1="28.166" x2="90.4487" y2="43.5543" gradientUnits="userSpaceOnUse">
<stop offset="0.375" stop-color="#F2AF02"/>
<stop offset="0.572917" stop-color="#F9D986"/>
<stop offset="0.703125" stop-color="white"/>
</linearGradient>
<linearGradient id="paint11_linear" x1="111.745" y1="37.2436" x2="97.3831" y2="49.9501" gradientUnits="userSpaceOnUse">
<stop offset="0.375" stop-color="#F2AF02"/>
<stop offset="0.572917" stop-color="#F9D986"/>
<stop offset="0.703125" stop-color="white"/>
</linearGradient>
<linearGradient id="paint12_linear" x1="120.181" y1="49.3432" x2="103.262" y2="58.4379" gradientUnits="userSpaceOnUse">
<stop offset="0.375" stop-color="#F2AF02"/>
<stop offset="0.572917" stop-color="#F9D986"/>
<stop offset="0.703125" stop-color="white"/>
</linearGradient>
<linearGradient id="paint13_linear" x1="125.608" y1="63.0345" x2="107.028" y2="68.005" gradientUnits="userSpaceOnUse">
<stop offset="0.375" stop-color="#F2AF02"/>
<stop offset="0.572917" stop-color="#F9D986"/>
<stop offset="0.703125" stop-color="white"/>
</linearGradient>
<clipPath id="clip0">
<rect width="128" height="128" fill="white"/>
</clipPath>
</defs>
</svg>
