<svg width="128" height="128" viewBox="0 0 128 128" fill="none" xmlns="http://www.w3.org/2000/svg">
<ellipse cx="63.5786" cy="64.0615" rx="62.6126" ry="61.0615" fill="black"/>
<ellipse cx="63.2083" cy="77.2" rx="50.2083" ry="48.2" fill="white"/>
<path d="M102.326 64.1021C102.014 69.2666 93.4849 92.0967 85.073 99.3868C76.6611 106.677 64.6703 103.312 59.1077 121.202C57.9428 96.5178 57.8548 83.6252 66.3815 75.0046C74.9082 66.3839 95.9281 63.7342 102.326 64.1021Z" fill="#26AF23"/>
<path d="M38.1124 87.9674C38.6479 90.3162 39.6205 99.1113 44.7064 101.549C49.7924 103.986 56.048 105.864 59.9604 113.676C58.6209 102.259 58.0479 95.5164 53.4784 92.1741C48.9088 88.8318 41.0221 87.3365 38.1124 87.9674Z" fill="#26AF23"/>
<path d="M69.0474 98.2807C60.5634 110.432 61.5 120 58 122.5C57.2474 118.87 57.8034 109.671 66.3088 96.841C76.4431 81.5543 86.6769 75.2151 90.5524 73.0375C84.9552 78.33 79.2236 83.7054 69.0474 98.2807Z" fill="white"/>
<path d="M54.004 102.937C57.7592 107.902 58.4915 113.836 59.5768 115.634C59.8336 114.1 58.9044 107.541 55.1293 102.291C50.6312 96.036 46.2363 93.5351 44.5757 92.6816C47.0089 94.815 49.4999 96.981 54.004 102.937Z" fill="white"/>
<path d="M5.57679 53.4367L6.73202 49.8622L7.66227 50.1435L6.9241 52.4275L10.0249 53.3652L10.597 51.5951L11.5158 51.8729L10.9437 53.6431L15.2963 54.9593L14.8793 56.2498L5.57679 53.4367Z" fill="#F2AF02"/>
<path d="M19.7111 45.3389C19.3341 45.9713 18.8772 46.3164 18.3402 46.3741C17.8003 46.421 17.1671 46.242 16.4406 45.8369L14.6803 44.8553C13.9538 44.4502 13.4798 44.0119 13.2582 43.5404C13.0338 43.0581 13.1101 42.5007 13.487 41.8684C13.8599 41.2429 14.3162 40.9066 14.8561 40.8597C15.3931 40.802 16.0249 40.9756 16.7514 41.3807L18.5117 42.3623C19.2382 42.7674 19.7136 43.2111 19.9381 43.6934C20.1596 44.1649 20.0839 44.7134 19.7111 45.3389ZM18.8833 44.8774C19.0021 44.678 19.0288 44.5006 18.9633 44.345C18.8978 44.1894 18.7839 44.0526 18.6215 43.9346C18.4592 43.8166 18.2278 43.6739 17.9275 43.5064L16.0309 42.4489C15.7305 42.2814 15.4869 42.1593 15.2999 42.0825C15.106 42.0019 14.9231 41.9731 14.751 41.9962C14.579 42.0194 14.4336 42.1306 14.3148 42.3299C14.196 42.5293 14.1673 42.7102 14.2287 42.8726C14.2942 43.0282 14.4116 43.1669 14.5809 43.2888C14.7432 43.4068 14.9746 43.5496 15.275 43.717L17.1715 44.7746C17.4719 44.9421 17.7156 45.0642 17.9025 45.141C18.0894 45.2177 18.2689 45.2445 18.4409 45.2214C18.617 45.1914 18.7645 45.0767 18.8833 44.8774Z" fill="#F2AF02"/>
<path d="M19.9325 33.1718L20.8073 32.2315L21.5497 32.8769C21.4175 32.444 21.3755 32.0843 21.4238 31.7977C21.4775 31.5053 21.5997 31.2565 21.7905 31.0515C21.8396 30.9987 21.8889 30.9516 21.9386 30.9099L23.0068 31.8388C22.76 31.9633 22.563 32.1046 22.4158 32.2628C22.2741 32.4151 22.1852 32.5869 22.1492 32.7782C22.1126 32.9583 22.1361 33.1854 22.2196 33.4594L26.04 36.7812L25.1651 37.7215L19.9325 33.1718Z" fill="#F2AF02"/>
<path d="M33.5141 30.4301C33.0754 30.7384 32.6749 30.8978 32.3124 30.9083C31.9451 30.9124 31.5922 30.7892 31.2535 30.5387C30.9148 30.2882 30.5531 29.9074 30.1684 29.3962L29.2162 28.1309C28.6391 27.364 28.3394 26.7198 28.3171 26.198C28.2966 25.6653 28.6006 25.1781 29.2291 24.7364C29.6874 24.4143 30.1008 24.2653 30.4694 24.2896C30.8446 24.3093 31.1956 24.4631 31.5225 24.7512C31.8512 25.0283 32.2295 25.4512 32.6575 26.0199L32.9965 26.4704L30.7575 28.0441L31.5943 29.1561C31.8492 29.4947 32.0834 29.7063 32.2971 29.7906C32.5124 29.864 32.7314 29.8224 32.954 29.666C33.1766 29.5095 33.2719 29.3302 33.2398 29.128C33.203 28.9194 33.0691 28.6617 32.8383 28.355L32.5858 28.0195L33.6071 27.3017L33.7658 27.5126C34.2034 28.0941 34.41 28.6279 34.3855 29.1141C34.361 29.6003 34.0705 30.039 33.5141 30.4301ZM31.547 26.6392L31.1719 26.1408C30.8882 25.7638 30.6469 25.523 30.4481 25.4184C30.251 25.3029 30.0314 25.3303 29.7892 25.5005C29.6189 25.6202 29.5169 25.7505 29.4829 25.8916C29.4555 26.0281 29.4928 26.1973 29.5947 26.3993C29.6918 26.5948 29.8654 26.8588 30.1155 27.191L30.3391 27.4882L31.547 26.6392Z" fill="#F2AF02"/>
<path d="M38.3597 19.486L39.5555 18.9856L42.6247 23.7469L41.1388 18.3231L42.2904 17.8412L43.9103 24.678L42.4598 25.285L38.3597 19.486Z" fill="#F2AF02"/>
<path d="M53.3285 22.027C52.8014 22.1242 52.3728 22.1015 52.0428 21.9591C51.7112 21.8087 51.4476 21.5483 51.2518 21.1777C51.0561 20.8071 50.896 20.308 50.7717 19.6803L50.4639 18.1267C50.2773 17.1851 50.2869 16.4717 50.4925 15.9864C50.7045 15.4919 51.1881 15.175 51.9435 15.0358C52.4943 14.9342 52.9299 14.9718 53.2504 15.1486C53.5787 15.3239 53.8273 15.6116 53.9963 16.0115C54.1715 16.4021 54.3283 16.9466 54.4667 17.6449L54.5763 18.1981L51.8853 18.6942L52.1558 20.0595C52.2382 20.4753 52.357 20.7665 52.5124 20.9331C52.674 21.0904 52.8886 21.1443 53.1561 21.095C53.4237 21.0457 53.5868 20.9221 53.6454 20.7242C53.7025 20.5185 53.6938 20.2273 53.6192 19.8507L53.5375 19.4387L54.765 19.2124L54.8163 19.4714C54.9578 20.1854 54.9124 20.759 54.6801 21.1922C54.4479 21.6254 53.9973 21.9037 53.3285 22.027ZM53.2018 17.7439L53.0805 17.1319C52.9888 16.6689 52.8763 16.3481 52.743 16.1693C52.6161 15.9813 52.407 15.9141 52.1159 15.9677C51.9113 16.0055 51.7633 16.0816 51.6718 16.196C51.5881 16.309 51.5484 16.479 51.5526 16.706C51.5552 16.9251 51.597 17.2386 51.6778 17.6467L51.7501 18.0115L53.2018 17.7439Z" fill="#F2AF02"/>
<path d="M62.9705 14.0392L64.2543 14.0654L64.2336 15.0492C64.4818 14.6622 64.7315 14.3912 64.9828 14.2363C65.2421 14.0815 65.5118 14.007 65.7917 14.0127C65.8637 14.0142 65.9316 14.0196 65.9954 14.0289L65.9657 15.4446C65.7118 15.3434 65.4769 15.2906 65.2609 15.2862C65.0529 15.2819 64.8639 15.3301 64.6937 15.4306C64.5318 15.5234 64.3722 15.6921 64.215 15.937L64.1089 20.9999L62.8252 20.9737L62.9705 14.0392Z" fill="#F2AF02"/>
<path d="M82.352 24.7469C81.5403 24.4072 81.0664 23.9098 80.9303 23.2544C80.7973 22.5918 80.9546 21.7601 81.4021 20.7594L82.7298 17.79C83.0369 17.1034 83.3584 16.5703 83.6946 16.1907C84.0414 15.8068 84.4405 15.5706 84.8918 15.482C85.3537 15.3891 85.8909 15.4708 86.5033 15.7271C87.3297 16.0729 87.8306 16.5296 88.006 17.0973C88.1887 17.668 88.0808 18.399 87.6823 19.2902L87.5354 19.6189L86.3622 19.128L86.4847 18.854C86.6741 18.4304 86.7936 18.0945 86.8433 17.8464C86.8961 17.5911 86.8638 17.3694 86.7464 17.1816C86.6363 16.9968 86.419 16.8364 86.0943 16.7006C85.7475 16.5555 85.4534 16.5277 85.2118 16.6174C84.9735 16.6998 84.7697 16.8617 84.6005 17.103C84.4386 17.3475 84.2597 17.6888 84.0638 18.1271L82.594 21.4142C82.2902 22.0936 82.1525 22.6169 82.1809 22.9844C82.22 23.3476 82.4756 23.628 82.9478 23.8256C83.4127 24.0201 83.8018 23.9922 84.1152 23.7418C84.436 23.4945 84.7548 23.0165 85.0717 22.308L85.346 21.6944L84.2061 21.2174L84.598 20.3408L86.8669 21.2902L84.9022 25.684L84.1164 25.3552L84.4503 24.2852C83.8335 24.9203 83.1341 25.0742 82.352 24.7469Z" fill="#F2AF02"/>
<path d="M95.5277 23.6785L96.5782 24.4163L95.987 25.2032C96.4188 25.0276 96.7843 24.9471 97.0833 24.9617C97.3888 24.9808 97.6562 25.0708 97.8852 25.2317C97.9441 25.2731 97.9974 25.3154 98.0449 25.3586L97.1941 26.491C97.0424 26.2671 96.8782 26.0931 96.7014 25.969C96.5313 25.8495 96.3462 25.783 96.1463 25.7696C95.9577 25.7545 95.7268 25.8024 95.4534 25.9134L92.4108 29.9632L91.3604 29.2254L95.5277 23.6785Z" fill="#F2AF02"/>
<path d="M99.8831 36.3668C99.5179 35.9748 99.3098 35.6048 99.2591 35.2569C99.2143 34.9038 99.3019 34.552 99.522 34.2016C99.742 33.8511 100.094 33.4658 100.576 33.0455L101.772 32.0053C102.496 31.3749 103.125 31.0234 103.659 30.951C104.204 30.8792 104.738 31.1242 105.261 31.686C105.643 32.0956 105.842 32.479 105.858 32.8362C105.879 33.1992 105.759 33.5521 105.499 33.8949C105.251 34.2383 104.858 34.6438 104.321 35.1114L103.895 35.4817L102.031 33.4804L100.981 34.3945C100.661 34.6729 100.469 34.9191 100.406 35.1329C100.354 35.3474 100.421 35.5541 100.607 35.7531C100.792 35.952 100.987 36.0262 101.191 35.9756C101.401 35.9198 101.651 35.7657 101.941 35.5136L102.258 35.2378L103.108 36.1507L102.909 36.324C102.36 36.8021 101.834 37.0531 101.332 37.077C100.829 37.101 100.346 36.8643 99.8831 36.3668ZM103.562 34.103L104.033 33.6932C104.389 33.3833 104.61 33.1275 104.695 32.9259C104.792 32.725 104.74 32.5162 104.538 32.2997C104.396 32.1476 104.251 32.062 104.102 32.0432C103.959 32.0301 103.789 32.0825 103.593 32.2004C103.403 32.313 103.151 32.5058 102.837 32.779L102.556 33.0233L103.562 34.103Z" fill="#F2AF02"/>
<path d="M106.732 45.2899C106.467 44.8242 106.349 44.4158 106.38 44.0647C106.417 43.7099 106.583 43.3866 106.877 43.0946C107.171 42.8027 107.6 42.5066 108.166 42.2064L109.565 41.4633C110.413 41.0129 111.105 40.8131 111.64 40.8639C112.186 40.9179 112.649 41.2786 113.028 41.9459C113.305 42.4325 113.41 42.8519 113.344 43.2041C113.281 43.5632 113.085 43.8804 112.753 44.1558C112.433 44.4344 111.959 44.7407 111.33 45.0747L110.832 45.3393L109.479 42.9618L108.249 43.6149C107.875 43.8138 107.632 44.0104 107.522 44.2048C107.423 44.4023 107.44 44.6193 107.575 44.8556C107.709 45.092 107.882 45.2087 108.092 45.2058C108.309 45.1991 108.587 45.1057 108.926 44.9256L109.297 44.7286L109.914 45.813L109.681 45.9369C109.038 46.2784 108.469 46.4037 107.976 46.3127C107.482 46.2218 107.068 45.8808 106.732 45.2899ZM110.824 43.9179L111.375 43.6251C111.792 43.4037 112.065 43.2044 112.194 43.0271C112.334 42.8531 112.331 42.6374 112.185 42.3802C112.082 42.1995 111.961 42.083 111.821 42.0307C111.684 41.9853 111.507 41.9978 111.29 42.0682C111.079 42.1348 110.79 42.2656 110.423 42.4608L110.094 42.6353L110.824 43.9179Z" fill="#F2AF02"/>
<path d="M117.528 51.8399L117.884 53.0732L117.224 53.2511C117.879 53.6461 118.287 54.1202 118.447 54.6734C118.551 55.0346 118.494 55.3274 118.276 55.5518C118.058 55.7762 117.755 55.9405 117.369 56.0445L111.946 57.5055L111.589 56.2722L116.653 54.908C116.908 54.8393 117.086 54.7499 117.188 54.6398C117.289 54.5297 117.311 54.3747 117.253 54.1749C117.182 53.929 116.96 53.6783 116.586 53.4228L111.186 54.8776L110.829 53.6443L117.528 51.8399Z" fill="#F2AF02"/>
</svg>
