<svg width="128" height="128" viewBox="0 0 128 128" fill="none" xmlns="http://www.w3.org/2000/svg">
  <g clip-path="url(#a)">
    <ellipse cx="63.6" cy="64.1" rx="62.6" ry="61.1" fill="#000"/>
    <ellipse cx="63.3" cy="77.3" rx="50.3" ry="48.3" fill="#fff"/>
    <path d="M102.3 64.1c-.3 5.2-8.8 28-17.2 35.3-8.4 7.3-20.4 4-26 21.8C58 96.5 58 83.6 66.4 75c8.5-8.6 29.5-11.3 36-10.9Z" fill="url(#b)"/>
    <path d="M38.1 88c.5 2.3 1.5 11.1 6.6 13.5 5 2.5 11.3 4.4 15.3 12.2-1.4-11.4-2-18.2-6.5-21.5A25.2 25.2 0 0 0 38 88Z" fill="url(#c)"/>
    <path d="M69 98.3c-8.4 12.1-7.5 21.7-11 24.2-.8-3.6-.2-12.8 8.3-25.7A71.5 71.5 0 0 1 90.6 73C85 78.3 79.2 83.7 69 98.3Z" fill="#fff"/>
    <path d="M54 103c3.8 4.9 4.5 10.8 5.6 12.6.2-1.5-.7-8-4.5-13.3a30.1 30.1 0 0 0-10.5-9.6c2.4 2.1 4.9 4.3 9.4 10.2Z" fill="#fff"/>
    <path d="m5.4 62.7 1.2-3.6 1 .3-.8 2.3 3 1 .7-1.8.9.3-.6 1.8 4.3 1.4-.4 1.3-9.3-3Z" fill="url(#d)"/>
    <path d="M19.6 54.5c-.4.6-.8 1-1.3 1-.6 0-1.2-.1-2-.6l-1.7-1c-.7-.4-1.1-.9-1.4-1.3-.2-.5 0-1.1.3-1.7.4-.7.8-1 1.3-1 .6 0 1.2.1 2 .5l1.7 1c.7.5 1.1 1 1.4 1.4.2.5.1 1-.3 1.7Zm-.8-.5c.1-.2.2-.4 0-.5a1 1 0 0 0-.2-.5l-.7-.4-1.9-1.1-.7-.4a1 1 0 0 0-.6 0c-.1 0-.3 0-.4.2v.6c0 .2 0 .3.3.4l.6.5 2 1 .6.5h.6l.4-.3Z" fill="url(#e)"/>
    <path d="m20 41.9 1-1 .7.7c-.1-.4-.2-.8-.1-1a1.5 1.5 0 0 1 .5-1l1 1a2 2 0 0 0-.5.4 1 1 0 0 0-.3.5v.7l3.8 3.4-.9 1-5.1-4.7Z" fill="url(#f)"/>
    <path d="M33.7 39c-.5.4-.9.5-1.2.5-.4 0-.7 0-1-.3L30.3 38l-1-1.3c-.5-.8-.8-1.4-.8-2 0-.5.3-1 1-1.4.4-.4.8-.5 1.2-.5.3 0 .7.2 1 .5l1.1 1.3.3.5-2.2 1.5.8 1.2.7.6.6-.1c.3-.2.4-.4.3-.6a2 2 0 0 0-.4-.7l-.2-.4 1-.7.2.2c.4.6.6 1.1.6 1.6s-.4 1-1 1.4Zm-2-3.8-.3-.5c-.2-.4-.5-.6-.7-.7-.2-.2-.4-.1-.6 0l-.3.4v.6c.2.1.3.4.6.8l.2.3 1.2-.9Z" fill="url(#g)"/>
    <path d="m38.8 27.9 1.2-.5 3 4.8-1.4-5.5 1.2-.4 1.4 6.8-1.4.7-4-6Z" fill="url(#h)"/>
    <path d="M53.8 30.4h-1.3l-.7-.8-.5-1.5-.3-1.6c-.1-1-.1-1.6.1-2.1s.7-.8 1.5-1c.5 0 1 0 1.3.2.3.1.5.4.7.8.2.4.3 1 .4 1.7l.1.5-2.7.5.3 1.4c0 .4.2.7.3.8.2.2.4.3.7.2.2 0 .4-.2.5-.4v-.8l-.1-.4 1.2-.3v.3c.2.7.1 1.3-.1 1.7-.2.4-.7.7-1.4.8Zm0-4.2-.1-.7c-.1-.4-.2-.8-.4-1 0-.1-.3-.2-.6-.1-.2 0-.3 0-.4.2l-.1.5v1l.1.3 1.5-.2Z" fill="url(#i)"/>
    <path d="M63.7 22.5H65v1l.7-.8a1.5 1.5 0 0 1 1-.2V24a2 2 0 0 0-.7-.2 1 1 0 0 0-.6.1l-.4.5-.2 5h-1.3l.2-6.9Z" fill="url(#j)"/>
    <path d="M83.2 33.7c-.8-.4-1.3-1-1.4-1.6-.1-.6 0-1.5.5-2.5l1.3-3 1-1.5c.3-.4.7-.6 1.2-.7.5-.1 1 0 1.6.3.8.3 1.3.8 1.5 1.4.2.5 0 1.3-.4 2.2l-.1.3-1.2-.5.2-.3.3-1V26l-.7-.5c-.4-.1-.7-.2-.9 0-.2 0-.4.2-.6.4l-.5 1-1.5 3.3c-.3.7-.5 1.2-.5 1.6 0 .3.3.6.8.8.5.2.9.2 1.2 0l1-1.4.2-.7-1.1-.5.4-.8 2.2 1-2 4.3-.7-.3.3-1c-.6.6-1.3.7-2 .4Z" fill="url(#k)"/>
    <path d="m96.4 33 1 .7-.5.8c.4-.2.8-.2 1-.2a1.5 1.5 0 0 1 1 .4l-.9 1.1a2 2 0 0 0-.4-.5 1 1 0 0 0-.6-.2l-.7.1-3 4-1-.7 4.1-5.5Z" fill="url(#l)"/>
    <path d="M100.7 46c-.4-.4-.6-.7-.6-1.1 0-.4 0-.7.3-1 .2-.4.5-.8 1-1.2l1.2-1c.7-.7 1.4-1 1.9-1.1.5 0 1 .2 1.6.8.3.4.5.8.5 1.1 0 .4 0 .7-.3 1l-1.2 1.3-.4.4-1.8-2-1 .8c-.4.3-.6.6-.7.8 0 .2 0 .4.2.6l.6.3.7-.5.4-.3.8 1-.2.1c-.6.5-1 .8-1.6.8-.5 0-1-.3-1.4-.8Zm3.7-2.2.4-.4c.4-.3.6-.6.7-.8 0-.2 0-.4-.2-.6a.7.7 0 0 0-.4-.3c-.1 0-.3 0-.5.2-.2 0-.4.3-.7.5l-.3.3 1 1Z" fill="url(#m)"/>
    <path d="m107.4 55.4-.3-1.2c0-.4.2-.7.5-1l1.3-1 1.4-.7c.9-.4 1.5-.6 2-.5.6 0 1 .4 1.4 1 .3.5.4 1 .3 1.3 0 .4-.3.7-.6 1l-1.4.9-.5.3-1.3-2.4-1.2.6-.8.6v.7l.6.3c.2 0 .5 0 .8-.3l.4-.2.6 1.1-.3.2c-.6.3-1.2.4-1.7.3-.4 0-.9-.4-1.2-1Zm4.1-1.4.6-.3.8-.6v-.6a.7.7 0 0 0-.4-.4h-.5l-.9.5-.3.1.7 1.3Z" fill="url(#n)"/>
    <path d="m118.1 62.4.4 1.2-.7.2c.6.4 1 .9 1.2 1.4 0 .4 0 .7-.2 1a2 2 0 0 1-1 .4l-5.3 1.4-.4-1.2 5-1.3.6-.3c.1-.1.2-.3.1-.5 0-.2-.3-.5-.6-.7l-5.5 1.4-.3-1.2 6.7-1.8Z" fill="url(#o)"/>
  </g>
  <defs>
    <linearGradient id="d" x1="2" y1="59.6" x2="20.2" y2="65.6" gradientUnits="userSpaceOnUse">
      <stop offset=".4" stop-color="#F2AF02"/>
      <stop offset=".6" stop-color="#F9D986"/>
      <stop offset=".7" stop-color="#fff"/>
    </linearGradient>
    <linearGradient id="e" x1="7.8" y1="46.8" x2="24.3" y2="56.7" gradientUnits="userSpaceOnUse">
      <stop offset=".4" stop-color="#F2AF02"/>
      <stop offset=".6" stop-color="#F9D986"/>
      <stop offset=".7" stop-color="#fff"/>
    </linearGradient>
    <linearGradient id="f" x1="15.9" y1="36.1" x2="29.9" y2="49.1" gradientUnits="userSpaceOnUse">
      <stop offset=".4" stop-color="#F2AF02"/>
      <stop offset=".6" stop-color="#F9D986"/>
      <stop offset=".7" stop-color="#fff"/>
    </linearGradient>
    <linearGradient id="g" x1="26" y1="27.2" x2="37" y2="42.9" gradientUnits="userSpaceOnUse">
      <stop offset=".4" stop-color="#F2AF02"/>
      <stop offset=".6" stop-color="#F9D986"/>
      <stop offset=".7" stop-color="#fff"/>
    </linearGradient>
    <linearGradient id="h" x1="38.4" y1="20.4" x2="45.7" y2="38.1" gradientUnits="userSpaceOnUse">
      <stop offset=".4" stop-color="#F2AF02"/>
      <stop offset=".6" stop-color="#F9D986"/>
      <stop offset=".7" stop-color="#fff"/>
    </linearGradient>
    <linearGradient id="i" x1="52" y1="16.5" x2="55.3" y2="35.3" gradientUnits="userSpaceOnUse">
      <stop offset=".4" stop-color="#F2AF02"/>
      <stop offset=".6" stop-color="#F9D986"/>
      <stop offset=".7" stop-color="#fff"/>
    </linearGradient>
    <linearGradient id="j" x1="65.4" y1="15.5" x2="64.8" y2="34.6" gradientUnits="userSpaceOnUse">
      <stop offset=".4" stop-color="#F2AF02"/>
      <stop offset=".6" stop-color="#F9D986"/>
      <stop offset=".7" stop-color="#fff"/>
    </linearGradient>
    <linearGradient id="k" x1="89.6" y1="21.1" x2="81.9" y2="38.5" gradientUnits="userSpaceOnUse">
      <stop offset=".4" stop-color="#F2AF02"/>
      <stop offset=".6" stop-color="#F9D986"/>
      <stop offset=".7" stop-color="#fff"/>
    </linearGradient>
    <linearGradient id="l" x1="101.8" y1="28.2" x2="90.4" y2="43.6" gradientUnits="userSpaceOnUse">
      <stop offset=".4" stop-color="#F2AF02"/>
      <stop offset=".6" stop-color="#F9D986"/>
      <stop offset=".7" stop-color="#fff"/>
    </linearGradient>
    <linearGradient id="m" x1="111.7" y1="37.2" x2="97.4" y2="50" gradientUnits="userSpaceOnUse">
      <stop offset=".4" stop-color="#F2AF02"/>
      <stop offset=".6" stop-color="#F9D986"/>
      <stop offset=".7" stop-color="#fff"/>
    </linearGradient>
    <linearGradient id="n" x1="120.2" y1="49.3" x2="103.3" y2="58.4" gradientUnits="userSpaceOnUse">
      <stop offset=".4" stop-color="#F2AF02"/>
      <stop offset=".6" stop-color="#F9D986"/>
      <stop offset=".7" stop-color="#fff"/>
    </linearGradient>
    <linearGradient id="o" x1="125.6" y1="63" x2="107" y2="68" gradientUnits="userSpaceOnUse">
      <stop offset=".4" stop-color="#F2AF02"/>
      <stop offset=".6" stop-color="#F9D986"/>
      <stop offset=".7" stop-color="#fff"/>
    </linearGradient>
    <radialGradient id="b" cx="0" cy="0" r="1" gradientUnits="userSpaceOnUse" gradientTransform="matrix(-31.04745 40.58048 -95.51446 -73.07652 91.4 78.8)">
      <stop offset=".1" stop-color="#27CB24"/>
      <stop offset=".5" stop-color="#167514"/>
      <stop offset=".8" stop-color="#000500"/>
    </radialGradient>
    <radialGradient id="c" cx="0" cy="0" r="1" gradientUnits="userSpaceOnUse" gradientTransform="rotate(54.2 -68.8 90.5) scale(24.9248 60.8569)">
      <stop offset=".1" stop-color="#27CB24"/>
      <stop offset=".4" stop-color="#136411"/>
      <stop offset=".7" stop-color="#000500"/>
    </radialGradient>
    <clipPath id="a">
      <path fill="#fff" d="M0 0h128v128H0z"/>
    </clipPath>
  </defs>
</svg>
