<svg viewBox="0 0 128 128" fill="none" xmlns="http://www.w3.org/2000/svg">
  <ellipse cx="63.6" cy="64.1" rx="62.6" ry="61.1" fill="#000"/>
  <ellipse cx="63.2" cy="77.2" rx="50.2" ry="48.2" fill="#fff"/>
  <path d="M102.3 64.1c-.3 5.2-8.8 28-17.2 35.3-8.4 7.3-20.4 4-26 21.8C58 96.5 58 83.6 66.4 75c8.5-8.6 29.5-11.3 36-10.9Z" fill="#26AF23"/>
  <path d="M38.1 88c.5 2.3 1.5 11.1 6.6 13.5 5 2.5 11.3 4.4 15.3 12.2-1.4-11.4-2-18.2-6.5-21.5A25.2 25.2 0 0 0 38 88Z" fill="#26AF23"/>
  <path d="M69 98.3c-8.4 12.1-7.5 21.7-11 24.2-.8-3.6-.2-12.8 8.3-25.7A71.5 71.5 0 0 1 90.6 73C85 78.3 79.2 83.7 69 98.3Z" fill="#fff"/>
  <path d="M54 103c3.8 4.9 4.5 10.8 5.6 12.6.2-1.5-.7-8-4.5-13.3a30.1 30.1 0 0 0-10.5-9.6c2.4 2.1 4.9 4.3 9.4 10.2Z" fill="#fff"/>
  <path d="M5.6 53.4 6.7 50l1 .2-.8 2.3 3.1 1 .6-1.8 1 .3-.7 1.7 4.4 1.4-.4 1.2-9.3-2.8ZM19.7 45.3c-.4.7-.8 1-1.4 1-.5.1-1.1 0-1.9-.5l-1.7-1c-.7-.3-1.2-.8-1.4-1.3-.3-.4-.2-1 .2-1.6.4-.7.8-1 1.4-1 .5-.1 1.1 0 1.9.5l1.7 1c.7.4 1.2.8 1.4 1.3.3.5.2 1-.2 1.6ZM19 45v-.6a1 1 0 0 0-.3-.4l-.7-.4-1.9-1-.7-.4a1 1 0 0 0-.5-.1c-.2 0-.4.1-.5.3v.6l.3.4.7.4 1.9 1 .7.4.5.1c.2 0 .4-.1.5-.3ZM20 33.2l.8-1 .7.7v-1.1a1.5 1.5 0 0 1 .4-.9l1.1 1a2 2 0 0 0-.6.4 1 1 0 0 0-.3.5l.1.7 3.8 3.3-.8 1-5.3-4.6ZM33.5 30.4c-.4.3-.8.5-1.2.5-.4 0-.7-.1-1-.4-.4-.2-.7-.6-1.1-1.1l-1-1.3c-.6-.7-.9-1.4-.9-1.9s.3-1 1-1.5c.4-.3.8-.4 1.2-.4.3 0 .7.2 1 .5.4.2.7.7 1.2 1.2l.3.5-2.2 1.5.8 1.2.7.6.7-.1c.2-.2.3-.4.2-.6a2 2 0 0 0-.4-.7l-.2-.4 1-.7.2.2c.4.6.6 1.1.6 1.6s-.3 1-.9 1.3Zm-2-3.8-.3-.5-.8-.7c-.1-.1-.4 0-.6.1-.2.1-.3.3-.3.4v.5l.6.8.2.3 1.2-.9ZM38.4 19.5l1.2-.5 3 4.7-1.5-5.4 1.2-.5 1.6 6.9-1.4.6-4.1-5.8ZM53.3 22H52c-.3-.2-.6-.5-.7-.8l-.5-1.5-.3-1.6c-.2-1-.2-1.6 0-2.1s.7-.8 1.4-1l1.4.1c.3.2.5.5.7 1l.5 1.5v.6l-2.6.5.3 1.4c0 .4.2.7.3.8.2.2.4.2.7.2.2 0 .4-.2.4-.4.1-.2 0-.5 0-.8v-.5l1.2-.2v.3c.2.7.1 1.3-.1 1.7-.3.4-.7.7-1.4.8Zm-.1-4.3-.1-.6c-.1-.4-.2-.8-.4-1 0-.1-.3-.2-.6-.1-.2 0-.3 0-.4.2-.1.1-.2.3-.1.5v1l.2.3 1.4-.3ZM63 14h1.3v1l.7-.8a1.5 1.5 0 0 1 1-.2v1.4a2 2 0 0 0-.7-.1 1 1 0 0 0-.6.1l-.5.5V21h-1.4l.2-7ZM82.4 24.7c-.9-.3-1.3-.8-1.5-1.4-.1-.7 0-1.5.5-2.5l1.3-3c.3-.7.7-1.2 1-1.6.3-.4.7-.6 1.2-.7.5-.1 1 0 1.6.2.8.4 1.3.8 1.5 1.4.2.6 0 1.3-.3 2.2l-.2.3-1.1-.5V19l.4-1v-.7l-.7-.5c-.4-.1-.6-.2-.9 0-.2 0-.4.2-.6.4l-.5 1-1.5 3.3c-.3.7-.4 1.2-.4 1.6 0 .3.3.6.7.8.5.2.9.2 1.2 0 .3-.3.7-.8 1-1.5l.2-.6-1-.5.3-.9 2.3 1-2 4.4-.8-.3.4-1.1c-.7.6-1.4.8-2.1.4ZM95.5 23.7l1 .7-.5.8c.4-.2.8-.3 1-.2a1.5 1.5 0 0 1 1 .4l-.8 1a2 2 0 0 0-.5-.4 1 1 0 0 0-.6-.2l-.6.1-3 4-1.1-.7 4.1-5.5ZM99.9 36.4c-.4-.4-.6-.8-.6-1.1 0-.4 0-.7.2-1.1l1-1.2 1.3-1a4 4 0 0 1 1.9-1c.5-.1 1 .1 1.6.7l.6 1.1c0 .4-.1.8-.4 1-.2.4-.6.8-1.2 1.3l-.4.4-1.9-2-1 .9-.6.7c0 .2 0 .5.2.7.2.2.4.2.6.2.2 0 .5-.2.7-.5l.4-.3.8 1-.2.1c-.5.5-1 .8-1.6.8-.5 0-1-.2-1.4-.7Zm3.7-2.3.4-.4c.4-.3.6-.6.7-.8 0-.2 0-.4-.2-.6a.7.7 0 0 0-.4-.3c-.1 0-.3 0-.5.2l-.8.6-.2.2 1 1.1ZM106.7 45.3c-.2-.5-.4-.9-.3-1.2 0-.4.2-.7.5-1l1.3-.9 1.4-.7a4 4 0 0 1 2-.6c.6 0 1 .4 1.4 1 .3.5.4 1 .3 1.3 0 .4-.2.7-.5 1l-1.5.9-.5.2-1.3-2.3-1.3.6-.7.6v.7l.6.3c.2 0 .5 0 .8-.3l.4-.2.6 1.1-.2.1c-.7.4-1.2.5-1.7.4-.5 0-1-.4-1.3-1Zm4.1-1.4.6-.3.8-.6v-.6a.7.7 0 0 0-.4-.4h-.5l-.9.5-.3.1.7 1.3ZM117.5 51.8l.4 1.3-.7.2c.7.3 1 .8 1.2 1.4.2.3 0 .6-.1.9a2 2 0 0 1-1 .4l-5.4 1.5-.3-1.2 5-1.4c.3 0 .5-.2.6-.3 0 0 .1-.2 0-.4 0-.3-.2-.5-.6-.8l-5.4 1.5-.4-1.3 6.7-1.8Z" fill="#F2AF02"/>
</svg>
