<svg width="128" height="128" viewBox="0 0 128 128" fill="none" xmlns="http://www.w3.org/2000/svg">
<g clip-path="url(#clip0)">
<rect width="128" height="128" fill="white"/>
<ellipse cx="63.5786" cy="64.0615" rx="62.6126" ry="61.0615" fill="black"/>
<ellipse cx="63.0817" cy="77.6308" rx="50.1895" ry="48.4615" fill="white"/>
<path d="M102.326 64.1021C102.014 69.2667 93.4849 92.0968 85.073 99.3869C76.6611 106.677 64.6703 103.312 59.1076 121.202C57.9427 96.5179 57.8548 83.6252 66.3815 75.0046C74.9082 66.384 95.9281 63.7343 102.326 64.1021Z" fill="url(#paint0_radial)"/>
<path d="M38.1124 87.9675C38.648 90.3162 39.6205 99.1113 44.7064 101.549C49.7924 103.986 56.048 105.864 59.9604 113.676C58.621 102.259 58.0479 95.5165 53.4784 92.1741C48.9088 88.8318 41.0221 87.3365 38.1124 87.9675Z" fill="url(#paint1_radial)"/>
<path d="M69.0474 98.2807C60.5634 110.432 59.3659 124.624 56.9471 129C56.1945 125.37 57.8034 109.671 66.3088 96.841C76.4431 81.5544 86.677 75.2151 90.5524 73.0376C84.9552 78.33 79.2236 83.7055 69.0474 98.2807Z" fill="white"/>
<path d="M54.004 102.937C57.7591 107.902 58.4914 113.836 59.5768 115.634C59.8336 114.1 58.9043 107.541 55.1292 102.291C50.6311 96.036 46.2363 93.5352 44.5757 92.6816C47.0089 94.815 49.4999 96.9811 54.004 102.937Z" fill="white"/>
<path d="M4.89148 63.9852L5.98979 60.3927L6.92073 60.6717L6.21893 62.9672L9.32206 63.8973L9.86595 62.1183L10.7854 62.3938L10.2415 64.1728L14.5974 65.4783L14.2009 66.7753L4.89148 63.9852Z" fill="url(#paint2_linear)"/>
<path d="M18.8979 55.4584C18.5338 56.0982 18.0861 56.4482 17.5548 56.5084C17.0206 56.5578 16.3905 56.3793 15.6648 55.973L13.9061 54.9884C13.1803 54.5821 12.7042 54.1413 12.4778 53.666C12.2483 53.1799 12.3157 52.617 12.6799 51.9772C13.0401 51.3443 13.4873 51.0032 14.0216 50.9539C14.5528 50.8936 15.1813 51.0667 15.9071 51.473L17.6658 52.4576C18.3916 52.8639 18.8692 53.3102 19.0986 53.7963C19.3251 54.2715 19.2582 54.8256 18.8979 55.4584ZM18.071 54.9954C18.1858 54.7937 18.2096 54.6145 18.1424 54.4577C18.0752 54.3008 17.9603 54.1631 17.7977 54.0446C17.6351 53.9261 17.4038 53.7828 17.1037 53.6148L15.209 52.554C14.9089 52.386 14.6657 52.2636 14.4793 52.1868C14.286 52.1061 14.1043 52.0777 13.9342 52.1017C13.7641 52.1257 13.6216 52.2385 13.5068 52.4402C13.392 52.6418 13.3663 52.8246 13.4295 52.9884C13.4967 53.1452 13.615 53.2848 13.7846 53.4073C13.9472 53.5258 14.1785 53.6691 14.4786 53.8371L16.3734 54.8979C16.6735 55.0659 16.9167 55.1883 17.103 55.2651C17.2894 55.3419 17.4676 55.3683 17.6377 55.3443C17.8117 55.3134 17.9562 55.1971 18.071 54.9954Z" fill="url(#paint3_linear)"/>
<path d="M19.0896 42.8564L19.9437 41.8971L20.6836 42.5453C20.5485 42.1078 20.5032 41.7437 20.5479 41.453C20.5978 41.1564 20.7159 40.9035 20.9022 40.6943C20.9501 40.6405 20.9983 40.5923 21.0469 40.5498L22.1117 41.4826C21.8692 41.6106 21.6761 41.7553 21.5325 41.9166C21.3941 42.072 21.3082 42.2467 21.2746 42.4408C21.2404 42.6235 21.266 42.8534 21.3514 43.1303L25.1594 46.4662L24.3053 47.4255L19.0896 42.8564Z" fill="url(#paint4_linear)"/>
<path d="M32.6036 39.7368C32.1717 40.0544 31.7766 40.2209 31.4184 40.2361C31.0554 40.2449 30.7059 40.1247 30.3698 39.8755C30.0338 39.6262 29.6743 39.2453 29.2913 38.7328L28.3435 37.4642C27.7691 36.6954 27.4695 36.047 27.4448 35.5192C27.4217 34.9803 27.7196 34.4833 28.3385 34.0282C28.7898 33.6963 29.1976 33.5403 29.5621 33.5602C29.933 33.5753 30.2808 33.7266 30.6054 34.014C30.9317 34.2903 31.3078 34.7136 31.7338 35.2838L32.0713 35.7355L29.8665 37.3568L30.6994 38.4716C30.9531 38.8112 31.1858 39.0223 31.3974 39.105C31.6106 39.1765 31.8268 39.1317 32.046 38.9705C32.2652 38.8093 32.3584 38.6266 32.3257 38.4223C32.2882 38.2117 32.1545 37.9526 31.9248 37.645L31.6735 37.3087L32.6791 36.5691L32.8371 36.7805C33.2727 37.3636 33.4797 37.9013 33.458 38.3937C33.4364 38.8862 33.1516 39.3338 32.6036 39.7368ZM30.6395 35.9247L30.2661 35.425C29.9837 35.047 29.744 34.8063 29.5469 34.703C29.3516 34.5886 29.1346 34.6191 28.8961 34.7945C28.7285 34.9178 28.6282 35.051 28.5954 35.1943C28.5691 35.3328 28.6068 35.5036 28.7086 35.7067C28.8056 35.9034 28.9786 36.1683 29.2275 36.5015L29.4501 36.7994L30.6395 35.9247Z" fill="url(#paint5_linear)"/>
<path d="M37.5167 28.4475L38.7029 27.9248L41.7613 32.6734L40.2736 27.2327L41.4159 26.7294L43.04 33.5914L41.6011 34.2254L37.5167 28.4475Z" fill="url(#paint6_linear)"/>
<path d="M52.569 30.6779C52.0433 30.7826 51.6155 30.7658 51.2855 30.6276C50.954 30.4816 50.6898 30.2242 50.493 29.8556C50.2961 29.487 50.1343 28.9891 50.0076 28.3618L49.6941 26.8094C49.5041 25.8685 49.5107 25.1535 49.714 24.6645C49.9235 24.166 50.4049 23.8418 51.1582 23.6918C51.7075 23.5824 52.1424 23.6141 52.463 23.7868C52.7914 23.958 53.0407 24.2427 53.2109 24.6411C53.3874 25.0301 53.5462 25.5735 53.6871 26.2713L53.7987 26.8241L51.1151 27.3584L51.3906 28.7227C51.4745 29.1382 51.5943 29.4284 51.75 29.5931C51.912 29.7485 52.1264 29.7996 52.3932 29.7465C52.66 29.6933 52.8222 29.5672 52.88 29.3681C52.9361 29.1612 52.9262 28.8696 52.8502 28.4932L52.7671 28.0816L53.9912 27.8379L54.0435 28.0966C54.1875 28.8101 54.1446 29.3855 53.9146 29.8228C53.6845 30.2601 53.236 30.5451 52.569 30.6779ZM52.4251 26.388L52.3016 25.7764C52.2081 25.3138 52.0945 24.9939 51.9608 24.8166C51.8333 24.6299 51.6244 24.5655 51.3341 24.6233C51.13 24.6639 50.9826 24.7422 50.8918 24.8582C50.8087 24.9726 50.7698 25.1434 50.7749 25.3708C50.7784 25.5903 50.8213 25.9039 50.9037 26.3116L50.9773 26.6762L52.4251 26.388Z" fill="url(#paint7_linear)"/>
<path d="M62.2965 22.538L63.5804 22.5525L63.5687 23.5365C63.8134 23.1472 64.0606 22.874 64.3105 22.7168C64.5684 22.5597 64.8374 22.4828 65.1173 22.4859C65.1893 22.4867 65.2573 22.4915 65.3212 22.5002L65.3043 23.9161C65.0495 23.8172 64.8141 23.7666 64.5981 23.7641C64.3901 23.7618 64.2015 23.8116 64.0323 23.9137C63.8711 24.0079 63.7131 24.1781 63.5581 24.4244L63.4978 29.488L62.2139 29.4735L62.2965 22.538Z" fill="url(#paint8_linear)"/>
<path d="M82.0108 33.2515C81.1991 32.9119 80.7206 32.4125 80.5751 31.7532C80.4328 31.0866 80.5763 30.2489 81.0054 29.2401L82.2788 26.2471C82.5732 25.5549 82.8845 25.0173 83.2126 24.6342C83.5513 24.2468 83.9442 24.0078 84.3912 23.9173C84.8487 23.8224 85.3837 23.9031 85.9962 24.1593C86.8226 24.505 87.3273 24.9633 87.5103 25.5343C87.7007 26.1083 87.6048 26.8444 87.2227 27.7427L87.0817 28.0741L85.9085 27.5833L86.026 27.3072C86.2076 26.8801 86.3212 26.5417 86.3667 26.2918C86.4153 26.0346 86.3798 25.8116 86.2602 25.6228C86.1479 25.4371 85.9295 25.2763 85.6048 25.1405C85.258 24.9954 84.9653 24.9684 84.7267 25.0594C84.4912 25.143 84.2912 25.3065 84.1268 25.55C83.9698 25.7966 83.7973 26.1407 83.6093 26.5825L82.1997 29.8959C81.9084 30.5806 81.7797 31.1079 81.8136 31.4777C81.858 31.8432 82.1164 32.1247 82.5886 32.3223C83.0535 32.5167 83.4397 32.4875 83.7472 32.2345C84.0621 31.9846 84.3715 31.5025 84.6754 30.7883L84.9385 30.1698L83.7985 29.693L84.1744 28.8094L86.4433 29.7585L84.5592 34.1874L83.7733 33.8587L84.0886 32.7806C83.4855 33.4217 82.7929 33.5786 82.0108 33.2515Z" fill="url(#paint9_linear)"/>
<path d="M95.2095 32.2595L96.2577 33.0004L95.6833 33.7998C96.1081 33.6198 96.4683 33.5364 96.7642 33.5496C97.0666 33.5673 97.3321 33.657 97.5606 33.8186C97.6194 33.8601 97.6726 33.9026 97.7202 33.946L96.8937 35.0963C96.7407 34.8706 96.5761 34.6954 96.3997 34.5707C96.2299 34.4507 96.0461 34.3845 95.8483 34.372C95.6616 34.3577 95.4339 34.4073 95.165 34.5211L92.2092 38.6347L91.161 37.8937L95.2095 32.2595Z" fill="url(#paint10_linear)"/>
<path d="M99.7636 45.2457C99.3998 44.8522 99.1915 44.4795 99.1387 44.1276C99.0917 43.7703 99.1755 43.4129 99.3901 43.0556C99.6046 42.6983 99.9487 42.3042 100.422 41.8734L101.594 40.8073C102.305 40.1611 102.923 39.7986 103.45 39.7198C103.987 39.6414 104.517 39.8841 105.038 40.4479C105.418 40.859 105.617 41.2455 105.635 41.6072C105.659 41.9748 105.544 42.3335 105.29 42.6835C105.047 43.034 104.663 43.4489 104.136 43.9281L103.718 44.3077L101.862 42.2991L100.832 43.2361C100.518 43.5215 100.331 43.7728 100.27 43.9902C100.221 44.208 100.289 44.4167 100.473 44.6164C100.658 44.8161 100.851 44.8892 101.052 44.8359C101.259 44.7771 101.505 44.6185 101.789 44.36L102.1 44.0773L102.947 44.9935L102.751 45.1712C102.213 45.6612 101.695 45.921 101.2 45.9504C100.704 45.9798 100.225 45.7449 99.7636 45.2457ZM103.378 42.9143L103.84 42.4942C104.189 42.1766 104.406 41.9152 104.488 41.7101C104.583 41.5055 104.529 41.2945 104.328 41.0772C104.187 40.9245 104.043 40.8393 103.896 40.8217C103.754 40.81 103.587 40.8648 103.394 40.9863C103.207 41.1023 102.96 41.3003 102.652 41.5803L102.377 41.8307L103.378 42.9143Z" fill="url(#paint11_linear)"/>
<path d="M106.694 54.4532C106.43 53.9868 106.313 53.5762 106.342 53.2213C106.378 52.8624 106.541 52.5335 106.831 52.2343C107.122 51.9352 107.546 51.6298 108.106 51.3183L109.49 50.5471C110.329 50.0798 111.013 49.8678 111.543 49.9111C112.085 49.9575 112.544 50.3148 112.922 50.9831C113.198 51.4703 113.304 51.8922 113.239 52.2488C113.178 52.6123 112.984 52.9356 112.657 53.2185C112.34 53.5046 111.871 53.8209 111.249 54.1675L110.756 54.4421L109.409 52.0616L108.193 52.7392C107.822 52.9456 107.583 53.1478 107.474 53.3457C107.376 53.5466 107.394 53.7654 107.528 54.0021C107.662 54.2388 107.833 54.3541 108.041 54.348C108.256 54.3381 108.532 54.2396 108.867 54.0527L109.234 53.8482L109.849 54.9341L109.618 55.0626C108.982 55.417 108.419 55.552 107.93 55.4674C107.441 55.3829 107.029 55.0448 106.694 54.4532ZM110.744 53.007L111.289 52.7032C111.702 52.4734 111.972 52.2681 112.099 52.0872C112.237 51.9094 112.234 51.6917 112.088 51.4341C111.986 51.2532 111.865 51.1373 111.726 51.0866C111.591 51.0428 111.416 51.0581 111.2 51.1323C110.992 51.2027 110.706 51.3391 110.342 51.5416L110.017 51.7227L110.744 53.007Z" fill="url(#paint12_linear)"/>
<path d="M117.54 61.2131L117.899 62.4458L117.241 62.6343C117.895 63.0209 118.303 63.4907 118.464 64.0437C118.569 64.4046 118.513 64.6994 118.296 64.928C118.079 65.1566 117.778 65.326 117.394 65.4362L111.994 66.9842L111.636 65.7516L116.677 64.3061C116.931 64.2333 117.109 64.1409 117.209 64.0288C117.31 63.9167 117.331 63.7609 117.273 63.5612C117.202 63.3154 116.979 63.0671 116.606 62.8162L111.23 64.3576L110.871 63.1249L117.54 61.2131Z" fill="url(#paint13_linear)"/>
</g>
<defs>
<radialGradient id="paint0_radial" cx="0" cy="0" r="1" gradientUnits="userSpaceOnUse" gradientTransform="translate(91.3787 78.8148) rotate(127.419) scale(51.0952 120.263)">
<stop offset="0.119792" stop-color="#27CB24"/>
<stop offset="0.453125" stop-color="#167514"/>
<stop offset="0.776042" stop-color="#000500"/>
</radialGradient>
<radialGradient id="paint1_radial" cx="0" cy="0" r="1" gradientUnits="userSpaceOnUse" gradientTransform="translate(44.8276 93.4328) rotate(54.2238) scale(24.9248 60.8569)">
<stop offset="0.119792" stop-color="#27CB24"/>
<stop offset="0.427083" stop-color="#136411"/>
<stop offset="0.692708" stop-color="#000500"/>
</radialGradient>
<linearGradient id="paint2_linear" x1="1.34696" y1="60.9424" x2="19.7343" y2="66.5639" gradientUnits="userSpaceOnUse">
<stop offset="0.375" stop-color="#F2AF02"/>
<stop offset="0.572917" stop-color="#F9D986"/>
<stop offset="0.703125" stop-color="white"/>
</linearGradient>
<linearGradient id="paint3_linear" x1="6.91378" y1="48.0252" x2="23.6016" y2="57.5242" gradientUnits="userSpaceOnUse">
<stop offset="0.375" stop-color="#F2AF02"/>
<stop offset="0.572917" stop-color="#F9D986"/>
<stop offset="0.703125" stop-color="white"/>
</linearGradient>
<linearGradient id="paint4_linear" x1="14.7383" y1="37.124" x2="29.0566" y2="49.872" gradientUnits="userSpaceOnUse">
<stop offset="0.375" stop-color="#F2AF02"/>
<stop offset="0.572917" stop-color="#F9D986"/>
<stop offset="0.703125" stop-color="white"/>
</linearGradient>
<linearGradient id="paint5_linear" x1="24.6766" y1="28.0744" x2="36.0153" y2="43.4934" gradientUnits="userSpaceOnUse">
<stop offset="0.375" stop-color="#F2AF02"/>
<stop offset="0.572917" stop-color="#F9D986"/>
<stop offset="0.703125" stop-color="white"/>
</linearGradient>
<linearGradient id="paint6_linear" x1="36.9103" y1="20.9972" x2="44.6161" y2="38.4856" gradientUnits="userSpaceOnUse">
<stop offset="0.375" stop-color="#F2AF02"/>
<stop offset="0.572917" stop-color="#F9D986"/>
<stop offset="0.703125" stop-color="white"/>
</linearGradient>
<linearGradient id="paint7_linear" x1="50.4048" y1="16.7379" x2="54.1331" y2="35.4634" gradientUnits="userSpaceOnUse">
<stop offset="0.375" stop-color="#F2AF02"/>
<stop offset="0.572917" stop-color="#F9D986"/>
<stop offset="0.703125" stop-color="white"/>
</linearGradient>
<linearGradient id="paint8_linear" x1="63.8346" y1="15.4909" x2="63.6184" y2="34.5784" gradientUnits="userSpaceOnUse">
<stop offset="0.375" stop-color="#F2AF02"/>
<stop offset="0.572917" stop-color="#F9D986"/>
<stop offset="0.703125" stop-color="white"/>
</linearGradient>
<linearGradient id="paint9_linear" x1="88.1533" y1="20.5125" x2="80.7769" y2="38.1461" gradientUnits="userSpaceOnUse">
<stop offset="0.375" stop-color="#F2AF02"/>
<stop offset="0.572917" stop-color="#F9D986"/>
<stop offset="0.703125" stop-color="white"/>
</linearGradient>
<linearGradient id="paint10_linear" x1="100.515" y1="27.3572" x2="89.465" y2="42.9896" gradientUnits="userSpaceOnUse">
<stop offset="0.375" stop-color="#F2AF02"/>
<stop offset="0.572917" stop-color="#F9D986"/>
<stop offset="0.703125" stop-color="white"/>
</linearGradient>
<linearGradient id="paint11_linear" x1="110.618" y1="36.2171" x2="96.5369" y2="49.2331" gradientUnits="userSpaceOnUse">
<stop offset="0.375" stop-color="#F2AF02"/>
<stop offset="0.572917" stop-color="#F9D986"/>
<stop offset="0.703125" stop-color="white"/>
</linearGradient>
<linearGradient id="paint12_linear" x1="119.316" y1="48.1302" x2="102.599" y2="57.5909" gradientUnits="userSpaceOnUse">
<stop offset="0.375" stop-color="#F2AF02"/>
<stop offset="0.572917" stop-color="#F9D986"/>
<stop offset="0.703125" stop-color="white"/>
</linearGradient>
<linearGradient id="paint13_linear" x1="125.04" y1="61.7002" x2="106.573" y2="67.0738" gradientUnits="userSpaceOnUse">
<stop offset="0.375" stop-color="#F2AF02"/>
<stop offset="0.572917" stop-color="#F9D986"/>
<stop offset="0.703125" stop-color="white"/>
</linearGradient>
<clipPath id="clip0">
<rect width="128" height="128" fill="white"/>
</clipPath>
</defs>
</svg>
