<svg fill="none" xmlns="http://www.w3.org/2000/svg" viewBox="0 0 128 128">
  <g clip-path="url(#a)">
    <ellipse cx="63.579" cy="64.061" rx="62.613" ry="61.062" fill="#000"/>
    <ellipse cx="63.26" cy="77.25" rx="50.26" ry="48.25" fill="#fff"/>
    <path d="M102.326 64.102c-.312 5.165-8.841 27.995-17.253 35.285-8.412 7.29-20.403 3.925-25.965 21.815-1.165-24.684-1.253-37.577 7.274-46.197 8.526-8.621 29.546-11.27 35.944-10.903Z" fill="url(#b)"/>
    <path d="M38.112 87.968c.536 2.348 1.508 11.143 6.594 13.581 5.086 2.437 11.342 4.315 15.254 12.127-1.34-11.417-1.912-18.16-6.482-21.502-4.57-3.342-12.456-4.838-15.366-4.207Z" fill="url(#c)"/>
    <path d="M69.047 98.28C60.563 110.433 61.5 120 58 122.5c-.753-3.63-.197-12.829 8.309-25.659 10.134-15.287 20.368-21.626 24.243-23.803-5.597 5.292-11.328 10.668-21.505 25.243Z" fill="#fff"/>
    <path d="M54.004 102.937c3.755 4.965 4.487 10.899 5.573 12.697.257-1.534-.673-8.093-4.448-13.343-4.498-6.255-8.893-8.756-10.553-9.61 2.433 2.134 4.924 4.3 9.428 10.256Z" fill="#fff"/>
    <path d="m5.438 62.705 1.177-3.568.924.3-.751 2.279 3.082.997.582-1.767.914.296-.583 1.767 4.327 1.4-.425 1.288-9.247-2.992Z" fill="url(#d)"/>
    <path d="M19.627 54.485c-.378.631-.833.972-1.366 1.02-.535.038-1.16-.154-1.878-.576l-1.736-1.023c-.717-.422-1.184-.873-1.4-1.353-.218-.49-.139-1.052.24-1.684.373-.625.828-.956 1.363-.994.532-.048 1.157.138 1.874.56l1.736 1.023c.717.422 1.185.878 1.404 1.37.216.48.137 1.032-.237 1.657Zm-.817-.481c.12-.2.147-.378.083-.536a1.003 1.003 0 0 0-.335-.42 7.224 7.224 0 0 0-.685-.446l-1.87-1.101a7.225 7.225 0 0 0-.722-.383 1.032 1.032 0 0 0-.543-.097c-.171.02-.316.13-.435.329-.12.199-.149.381-.09.546.064.158.18.3.347.427.16.122.388.27.684.445l1.871 1.101c.297.175.537.303.722.383.184.081.362.111.533.091.174-.027.321-.14.44-.34Z" fill="url(#e)"/>
    <path d="m20.093 41.89.875-.94.725.664c-.125-.44-.163-.806-.112-1.095a1.487 1.487 0 0 1 .519-.893l1.044.956a2.041 2.041 0 0 0-.588.422 1.044 1.044 0 0 0-.27.518c-.038.182-.017.412.062.69l3.735 3.419-.875.94-5.115-4.681Z" fill="url(#f)"/>
    <path d="M33.672 39.065c-.44.308-.838.466-1.196.474-.363 0-.71-.127-1.04-.384-.331-.256-.682-.645-1.054-1.166l-.92-1.289c-.558-.78-.843-1.436-.856-1.964-.012-.54.297-1.03.926-1.471.458-.322.87-.47 1.233-.441.37.023.715.182 1.033.476.32.284.687.715 1.1 1.294l.328.46-2.24 1.572.81 1.133c.246.345.474.56.683.648.212.076.43.036.652-.12.222-.157.32-.337.291-.542-.033-.212-.16-.473-.384-.786l-.244-.342 1.022-.717.153.215c.423.592.618 1.134.586 1.626-.032.492-.327.933-.883 1.324Zm-1.881-3.854-.363-.508c-.274-.384-.508-.63-.703-.737-.193-.119-.41-.093-.653.077-.17.12-.273.25-.309.393-.03.138.005.31.102.515.093.199.26.468.502.806l.216.303 1.208-.849Z" fill="url(#g)"/>
    <path d="m38.83 27.885 1.196-.497 2.955 4.815-1.37-5.472 1.154-.479 1.474 6.896-1.452.603-3.958-5.866Z" fill="url(#h)"/>
    <path d="M53.83 30.443c-.529.093-.956.067-1.283-.079-.328-.153-.586-.416-.775-.789-.19-.372-.34-.874-.453-1.504l-.28-1.559c-.17-.944-.147-1.659.067-2.143.22-.494.709-.808 1.465-.941.551-.098.986-.057 1.302.123.325.178.568.468.73.87.167.393.314.94.44 1.64l.1.555-2.695.476.246 1.37c.075.418.188.71.34.878.159.16.372.215.64.168.268-.048.433-.17.495-.368.06-.206.057-.497-.011-.875l-.074-.414 1.229-.217.047.26c.128.717.073 1.29-.167 1.723-.24.432-.694.707-1.364.826Zm-.051-4.292-.11-.614c-.084-.465-.19-.787-.32-.967-.124-.19-.331-.259-.623-.207-.204.036-.353.11-.447.225-.085.112-.128.282-.128.51-.001.22.035.534.108.943l.066.366 1.454-.256Z" fill="url(#i)"/>
    <path d="m63.732 22.516 1.283.043-.033.983c.253-.384.506-.651.76-.803a1.494 1.494 0 0 1 1.014-.195l-.047 1.416a2.028 2.028 0 0 0-.703-.168 1.05 1.05 0 0 0-.569.138c-.163.09-.325.257-.485.5l-.17 5.06-1.284-.042.234-6.932Z" fill="url(#j)"/>
    <path d="M83.208 33.656c-.804-.357-1.272-.867-1.403-1.529-.127-.67.034-1.504.485-2.503l1.338-2.965c.31-.685.633-1.216.97-1.592.346-.38.744-.61 1.193-.691.46-.085.993.008 1.6.277.818.364 1.313.833 1.483 1.408.178.578.066 1.311-.335 2.201l-.148.328-1.163-.516.124-.273c.19-.423.311-.76.362-1.008.055-.256.024-.48-.091-.671-.109-.188-.324-.354-.645-.497-.344-.152-.636-.186-.876-.1-.238.079-.441.238-.61.478a7.33 7.33 0 0 0-.54 1.02l-1.482 3.283c-.306.678-.446 1.202-.42 1.573.036.366.288.653.756.86.46.205.847.184 1.16-.062.32-.243.64-.718.96-1.425l.276-.613-1.13-.502.396-.875 2.248.999-1.98 4.386-.779-.345.339-1.071c-.617.627-1.313.77-2.088.425Z" fill="url(#k)"/>
    <path d="m96.425 32.952 1.032.763-.591.787c.428-.17.79-.246 1.086-.227a1.503 1.503 0 0 1 .947.418l-.852 1.132a2.02 2.02 0 0 0-.482-.537 1.056 1.056 0 0 0-.547-.21c-.186-.019-.415.026-.686.134l-3.045 4.048-1.032-.764 4.17-5.544Z" fill="url(#l)"/>
    <path d="M100.696 46.034c-.355-.401-.555-.779-.601-1.131-.039-.359.053-.714.275-1.067.222-.352.575-.739 1.058-1.16l1.195-1.04c.724-.63 1.35-.98 1.878-1.047.539-.066 1.064.188 1.572.763.371.42.562.81.572 1.172.016.368-.107.724-.368 1.069-.251.345-.644.751-1.181 1.219l-.426.37-1.812-2.048-1.051.914c-.319.279-.512.526-.577.742-.054.216.009.427.189.63.18.204.371.281.574.232.208-.054.457-.207.747-.46l.317-.275.827.934-.2.174c-.549.478-1.072.726-1.568.745-.496.018-.97-.227-1.42-.736Zm3.665-2.252.47-.41c.356-.31.578-.567.665-.77.099-.203.05-.415-.146-.636-.138-.156-.28-.244-.426-.265-.142-.015-.31.036-.506.154a5.648 5.648 0 0 0-.755.577l-.28.245.978 1.105Z" fill="url(#m)"/>
    <path d="M107.424 55.39c-.254-.472-.362-.885-.325-1.24.043-.357.214-.683.511-.975.297-.293.728-.59 1.294-.888l1.4-.741c.849-.45 1.538-.646 2.067-.591.54.058.992.425 1.356 1.101.265.493.361.918.288 1.273-.069.362-.27.68-.603.956-.322.28-.798.586-1.428.919l-.498.263-1.295-2.409-1.231.651c-.375.198-.619.395-.732.59-.102.2-.089.419.04.658.129.24.297.359.505.357.216-.005.493-.097.832-.277l.372-.197.591 1.1-.234.123c-.644.34-1.209.463-1.696.368-.487-.095-.892-.442-1.214-1.041Zm4.081-1.358.551-.292c.418-.22.692-.42.823-.598.143-.175.144-.392.004-.653-.099-.183-.217-.302-.355-.355-.134-.047-.31-.035-.526.034-.21.066-.499.196-.867.39l-.329.175.699 1.3Z" fill="url(#n)"/>
    <path d="m118.12 62.384.332 1.24-.661.175c.645.4 1.042.879 1.191 1.435.097.364.035.657-.187.88-.221.225-.526.387-.912.49l-5.432 1.43-.332-1.24 5.072-1.336c.255-.067.435-.156.538-.266.103-.11.127-.265.074-.466-.066-.247-.283-.5-.651-.76l-5.408 1.425-.332-1.24 6.708-1.767Z" fill="url(#o)"/>
  </g>
  <defs>
    <linearGradient id="d" x1="1.961" y1="59.586" x2="20.222" y2="65.606" gradientUnits="userSpaceOnUse">
      <stop offset=".375" stop-color="#F2AF02"/>
      <stop offset=".573" stop-color="#F9D986"/>
      <stop offset=".703" stop-color="#fff"/>
    </linearGradient>
    <linearGradient id="e" x1="7.807" y1="46.793" x2="24.285" y2="56.652" gradientUnits="userSpaceOnUse">
      <stop offset=".375" stop-color="#F2AF02"/>
      <stop offset=".573" stop-color="#F9D986"/>
      <stop offset=".703" stop-color="#fff"/>
    </linearGradient>
    <linearGradient id="f" x1="15.867" y1="36.064" x2="29.905" y2="49.121" gradientUnits="userSpaceOnUse">
      <stop offset=".375" stop-color="#F2AF02"/>
      <stop offset=".573" stop-color="#F9D986"/>
      <stop offset=".703" stop-color="#fff"/>
    </linearGradient>
    <linearGradient id="g" x1="26" y1="27.233" x2="37.001" y2="42.895" gradientUnits="userSpaceOnUse">
      <stop offset=".375" stop-color="#F2AF02"/>
      <stop offset=".573" stop-color="#F9D986"/>
      <stop offset=".703" stop-color="#fff"/>
    </linearGradient>
    <linearGradient id="h" x1="38.385" y1="20.424" x2="45.708" y2="38.075" gradientUnits="userSpaceOnUse">
      <stop offset=".375" stop-color="#F2AF02"/>
      <stop offset=".573" stop-color="#F9D986"/>
      <stop offset=".703" stop-color="#fff"/>
    </linearGradient>
    <linearGradient id="i" x1="51.969" y1="16.459" x2="55.289" y2="35.261" gradientUnits="userSpaceOnUse">
      <stop offset=".375" stop-color="#F2AF02"/>
      <stop offset=".573" stop-color="#F9D986"/>
      <stop offset=".703" stop-color="#fff"/>
    </linearGradient>
    <linearGradient id="j" x1="65.423" y1="15.505" x2="64.791" y2="34.583" gradientUnits="userSpaceOnUse">
      <stop offset=".375" stop-color="#F2AF02"/>
      <stop offset=".573" stop-color="#F9D986"/>
      <stop offset=".703" stop-color="#fff"/>
    </linearGradient>
    <linearGradient id="k" x1="89.626" y1="21.054" x2="81.868" y2="38.523" gradientUnits="userSpaceOnUse">
      <stop offset=".375" stop-color="#F2AF02"/>
      <stop offset=".573" stop-color="#F9D986"/>
      <stop offset=".703" stop-color="#fff"/>
    </linearGradient>
    <linearGradient id="l" x1="101.836" y1="28.166" x2="90.449" y2="43.554" gradientUnits="userSpaceOnUse">
      <stop offset=".375" stop-color="#F2AF02"/>
      <stop offset=".573" stop-color="#F9D986"/>
      <stop offset=".703" stop-color="#fff"/>
    </linearGradient>
    <linearGradient id="m" x1="111.745" y1="37.244" x2="97.383" y2="49.95" gradientUnits="userSpaceOnUse">
      <stop offset=".375" stop-color="#F2AF02"/>
      <stop offset=".573" stop-color="#F9D986"/>
      <stop offset=".703" stop-color="#fff"/>
    </linearGradient>
    <linearGradient id="n" x1="120.181" y1="49.343" x2="103.262" y2="58.438" gradientUnits="userSpaceOnUse">
      <stop offset=".375" stop-color="#F2AF02"/>
      <stop offset=".573" stop-color="#F9D986"/>
      <stop offset=".703" stop-color="#fff"/>
    </linearGradient>
    <linearGradient id="o" x1="125.608" y1="63.035" x2="107.028" y2="68.005" gradientUnits="userSpaceOnUse">
      <stop offset=".375" stop-color="#F2AF02"/>
      <stop offset=".573" stop-color="#F9D986"/>
      <stop offset=".703" stop-color="#fff"/>
    </linearGradient>
    <radialGradient id="b" cx="0" cy="0" r="1" gradientUnits="userSpaceOnUse" gradientTransform="matrix(-31.04745 40.58048 -95.51446 -73.07652 91.379 78.815)">
      <stop offset=".12" stop-color="#27CB24"/>
      <stop offset=".453" stop-color="#167514"/>
      <stop offset=".776" stop-color="#000500"/>
    </radialGradient>
    <radialGradient id="c" cx="0" cy="0" r="1" gradientUnits="userSpaceOnUse" gradientTransform="rotate(54.224 -68.831 90.494) scale(24.9248 60.8569)">
      <stop offset=".12" stop-color="#27CB24"/>
      <stop offset=".427" stop-color="#136411"/>
      <stop offset=".693" stop-color="#000500"/>
    </radialGradient>
    <clipPath id="a">
      <path fill="#fff" d="M0 0h128v128H0z"/>
    </clipPath>
  </defs>
</svg>
